<svg xmlns="http://www.w3.org/2000/svg" width="845" height="192" viewBox="0 0 845 192" role="img" aria-label="Laboratory humidity sensor selection">
  <defs>
    <linearGradient id="fade" x1="0" y1="0" x2="1" y2="0">
      <stop offset="0" stop-color="#ffffff" stop-opacity="0.18"/>
      <stop offset="0.55" stop-color="#eef4f8" stop-opacity="0.28"/>
      <stop offset="1" stop-color="#17212b" stop-opacity="0.2"/>
    </linearGradient>
    <linearGradient id="bench" x1="0" y1="0" x2="1" y2="0">
      <stop offset="0" stop-color="#edf3f7"/>
      <stop offset="1" stop-color="#ffffff"/>
    </linearGradient>
    <filter id="softShadow" x="-20%" y="-30%" width="150%" height="170%">
      <feDropShadow dx="0" dy="8" stdDeviation="9" flood-color="#17212b" flood-opacity="0.2"/>
    </filter>
    <clipPath id="rounded">
      <rect width="845" height="192" rx="0"/>
    </clipPath>
  </defs>
  <g clip-path="url(#rounded)">
    <image href="/assets/application-lab-chambers.png" x="-70" y="-38" width="990" height="268" preserveAspectRatio="xMidYMid slice"/>
    <rect width="845" height="192" fill="url(#fade)"/>
    <rect x="0" y="118" width="845" height="74" fill="url(#bench)" opacity="0.92"/>
    <path d="M0 118 H845" stroke="#d8e1e9" stroke-width="1"/>
    <rect x="580" y="20" width="218" height="78" rx="9" fill="#1d2e40" opacity="0.84" filter="url(#softShadow)"/>
    <rect x="596" y="36" width="72" height="30" rx="4" fill="#e9f1f6" opacity="0.9"/>
    <rect x="681" y="39" width="88" height="7" rx="3.5" fill="#aebac5" opacity="0.68"/>
    <rect x="681" y="56" width="64" height="7" rx="3.5" fill="#aebac5" opacity="0.52"/>
    <circle cx="770" cy="77" r="7" fill="#bc2f2f"/>
    <circle cx="748" cy="77" r="7" fill="#748595"/>
    <image href="/assets/products/RT_HC2A_Industrial_Humidity_Probes.png" x="66" y="34" width="235" height="118" preserveAspectRatio="xMidYMid meet" filter="url(#softShadow)"/>
    <image href="/assets/products/Humidity and Temperature Probe HMP3.png" x="285" y="20" width="190" height="134" preserveAspectRatio="xMidYMid meet" filter="url(#softShadow)"/>
    <image href="/assets/products/Humidity and Temperature Transmitter Series HMT310.png" x="430" y="22" width="182" height="132" preserveAspectRatio="xMidYMid meet" filter="url(#softShadow)"/>
    <path d="M64 164 H772" stroke="#cbd6df" stroke-width="1" opacity="0.9"/>
    <rect x="64" y="172" width="172" height="4" rx="2" fill="#bc2f2f" opacity="0.9"/>
    <rect x="250" y="172" width="116" height="4" rx="2" fill="#1d2e40" opacity="0.28"/>
    <rect x="380" y="172" width="92" height="4" rx="2" fill="#1d2e40" opacity="0.2"/>
  </g>
</svg>
