<svg xmlns="http://www.w3.org/2000/svg" width="845" height="192" viewBox="0 0 845 192" role="img" aria-label="Industrial humidity sensor selection">
  <defs>
    <linearGradient id="bg" x1="0" y1="0" x2="1" y2="1">
      <stop offset="0" stop-color="#eef4f8"/>
      <stop offset="0.54" stop-color="#ffffff"/>
      <stop offset="1" stop-color="#dce6ee"/>
    </linearGradient>
    <linearGradient id="steel" x1="0" y1="0" x2="1" y2="0">
      <stop offset="0" stop-color="#263747"/>
      <stop offset="1" stop-color="#6d7d8b"/>
    </linearGradient>
    <filter id="shadow" x="-20%" y="-20%" width="140%" height="150%">
      <feDropShadow dx="0" dy="10" stdDeviation="10" flood-color="#17212b" flood-opacity="0.18"/>
    </filter>
  </defs>
  <rect width="845" height="192" fill="url(#bg)"/>
  <rect x="0" y="0" width="845" height="192" fill="#eef4f8" opacity="0.35"/>
  <path d="M0 152 C160 106 255 178 417 128 C565 82 670 122 845 70 L845 192 L0 192 Z" fill="#c8d5df" opacity="0.42"/>
  <path d="M0 152 H845" stroke="#b7c4cf" stroke-width="1" opacity="0.8"/>
  <rect x="34" y="132" width="332" height="12" rx="6" fill="url(#steel)" opacity="0.92"/>
  <rect x="500" y="42" width="304" height="95" rx="10" fill="#1d2e40" opacity="0.92" filter="url(#shadow)"/>
  <rect x="516" y="57" width="112" height="44" rx="5" fill="#f7fafc" opacity="0.95"/>
  <rect x="646" y="57" width="132" height="10" rx="5" fill="#8fa0ae" opacity="0.7"/>
  <rect x="646" y="78" width="92" height="10" rx="5" fill="#8fa0ae" opacity="0.55"/>
  <circle cx="762" cy="107" r="9" fill="#bc2f2f"/>
  <circle cx="735" cy="107" r="9" fill="#5a6b79"/>
  <circle cx="708" cy="107" r="9" fill="#5a6b79"/>
  <image href="/assets/products/RT_HC2A_Industrial_Humidity_Probes.png" x="62" y="18" width="210" height="126" preserveAspectRatio="xMidYMid meet" filter="url(#shadow)"/>
  <image href="/assets/products/Humidity and Temperature Transmitter Series HMT310.png" x="255" y="10" width="205" height="140" preserveAspectRatio="xMidYMid meet" filter="url(#shadow)"/>
  <image href="/assets/products/Rotronic HF1.png" x="410" y="36" width="150" height="104" preserveAspectRatio="xMidYMid meet" filter="url(#shadow)"/>
  <rect x="28" y="156" width="789" height="1" fill="#ffffff" opacity="0.8"/>
  <rect x="28" y="166" width="242" height="4" rx="2" fill="#bc2f2f" opacity="0.9"/>
  <rect x="286" y="166" width="180" height="4" rx="2" fill="#1d2e40" opacity="0.35"/>
  <rect x="482" y="166" width="142" height="4" rx="2" fill="#1d2e40" opacity="0.25"/>
</svg>
